<?xml version="1.0" encoding="utf-8"?>
<!-- Generator: Adobe Illustrator 22.1.0, SVG Export Plug-In . SVG Version: 6.00 Build 0)  -->
<svg version="1.1" id="Layer_1" xmlns="http://www.w3.org/2000/svg" xmlns:xlink="http://www.w3.org/1999/xlink" x="0px" y="0px"
	 viewBox="0 0 300 300" style="enable-background:new 0 0 300 300;" xml:space="preserve">
<style type="text/css">
	.st0{fill:#1AAB9B;}
	.st1{fill:#FFFFFF;}
</style>
<g>
	<circle class="st0" cx="150" cy="150" r="150"/>
</g>
<g id="logo-maker" transform="translate(65.000000, 63.000000)">
	<g>
		<g id="Path-3-Copy-4-_x2B_-Path-3-Copy-5-Copy_6_" transform="translate(0.492537, 0.000000)">
			<g id="Shape_15_">
				<path class="st1" d="M70.6,143.3c-3.7,0-6.6-2.8-6.6-6.3V86.7L9.7,49.2V137c0,3.5-2.9,6.3-6.6,6.3s-6.6-2.8-6.6-6.3v-100
					c0-3.5,2.9-6.3,6.6-6.3c1.4,0,2.7,0.4,3.8,1.2l67.5,46.7c1.7,1.1,2.8,3,2.8,5.1v53.5C77.2,140.5,74.2,143.3,70.6,143.3z"/>
			</g>
			<g id="Shape_14_">
				<path class="st1" d="M98.4,143.3c-3.7,0-6.6-2.8-6.6-6.3V83.6c0-2,1.1-4,2.8-5.1l67.4-46.6c1.1-0.8,2.4-1.2,3.8-1.2
					c3.2,0,6.6,2.4,6.6,6.3v100c0,3.5-2.9,6.3-6.6,6.3s-6.6-2.8-6.6-6.3V49.2L105,86.7v50.3C105,140.5,102,143.3,98.4,143.3z"/>
			</g>
		</g>
	</g>
</g>
</svg>
