<?xml version="1.0" encoding="utf-8"?>
<!-- Generator: Adobe Illustrator 22.1.0, SVG Export Plug-In . SVG Version: 6.00 Build 0)  -->
<svg version="1.1" id="Layer_1" xmlns="http://www.w3.org/2000/svg" xmlns:xlink="http://www.w3.org/1999/xlink" x="0px" y="0px"
	 viewBox="0 0 300 300" style="enable-background:new 0 0 300 300;" xml:space="preserve">
<style type="text/css">
	.st0{fill:#1AAB9B;}
	.st1{fill:#FFFFFF;stroke:#FFFFFF;stroke-width:3;stroke-miterlimit:10;}
</style>
<g>
	<circle class="st0" cx="150" cy="150" r="150"/>
</g>
<g id="logo-maker" transform="translate(65.000000, 63.000000)">
	<g id="Path-3-Copy-4-_x2B_-Path-3-Copy-5-Copy" transform="translate(0.492537, 0.000000)">
		<path id="Shape" class="st1" d="M74.5,141.5V83.3c0-1.2-0.6-2.4-1.6-3.1L5.4,29.4c-2.6-1.9-6.2-0.1-6.2,3.1v108.9
			c0,2.2,1.7,3.9,3.9,3.9s3.9-1.7,3.9-3.9V32.5l-6.2,3.1l67.5,50.8l-1.6-3.1v58.2c0,2.2,1.7,3.9,3.9,3.9
			C72.8,145.4,74.5,143.6,74.5,141.5L74.5,141.5z"/>
		<path id="Shape_1_" class="st1" d="M102.3,141.5V83.3l-1.6,3.1l67.5-50.8l-6.2-3.1v108.9c0,2.2,1.7,3.9,3.9,3.9
			c2.2,0,3.9-1.7,3.9-3.9V32.5c0-3.2-3.7-5-6.2-3.1L96.1,80.2c-1,0.7-1.6,1.9-1.6,3.1v58.2c0,2.2,1.7,3.9,3.9,3.9
			S102.3,143.6,102.3,141.5L102.3,141.5z"/>
	</g>
</g>
</svg>
